version 1
nodes
0 "root" -1
end
skeleton
time 0
0 0 0 0 0 0 0
end
triangles
darkrp_alarm_clock_base
0  8.300000 -9.500000 1.700000  0.953486 -0.023005 0.300558  0.407063 0.731250 0
0  8.086893 -10.000000 0.492392  0.984784 0.000002 -0.173785  0.120926 0.217232 0
0  8.000000 -9.500000 0.000000  0.984784 0.000001 -0.173785  0.000000 0.000000 0
darkrp_alarm_clock_base
0  0.792893 -8.998739 9.207108  0.000000 1.000000 0.000000  0.587500 0.712500 0
0  6.885787 -8.998739 1.700000  -0.096376 -0.975151 -0.199478  0.417500 0.712500 0
0  0.085787 -8.998739 8.500001  0.260050 -0.965442 0.017185  0.587500 0.712500 0
darkrp_alarm_clock_base
0  0.792893 -8.998739 9.207108  0.699669 -0.000088 0.714467  0.000000 0.000000 0
0  0.792893 9.063761 9.207108  0.699687 0.000019 0.714450  0.000000 0.000000 0
0  -0.006788 6.195192 9.983611  0.376563 0.000296 0.926391  0.000000 0.000000 0
darkrp_alarm_clock_base
0  -0.006788 6.195192 9.983611  0.376563 0.000296 0.926391  0.000000 0.000000 0
0  -2.122363 9.976824 9.983808  0.001663 0.000004 0.999999  0.000000 0.000000 0
0  -10.000000 9.062783 10.000000  0.001711 0.000050 0.999999  0.000000 0.000000 0
darkrp_alarm_clock_base
0  -9.930470 9.981369 9.354417  -0.702819 0.702823 0.109935  0.003346 0.002931 0
0  -9.981369 9.930470 9.354417  -0.702819 0.702823 0.109931  0.000276 0.000243 0
0  -10.000000 9.860939 9.522792  -0.743882 0.605820 0.282174  0.000000 0.000000 0
darkrp_alarm_clock_base
0  8.300000 9.500000 1.700000  0.953472 0.023253 0.300585  0.000000 0.000000 0
0  8.224406 9.753465 1.775594  0.837739 0.106694 0.535547  0.000000 0.000000 0
0  8.041907 9.658275 1.958092  0.715100 0.011179 0.698933  0.000000 0.000000 0
darkrp_alarm_clock_base
0  6.885787 9.063761 1.700000  -0.697479 0.040817 -0.715442  0.417500 0.531875 0
0  0.085787 -8.998739 8.500001  -0.544054 0.171731 -0.821288  0.587500 0.712500 0
0  6.885787 -8.998739 1.700000  -0.541609 -0.072904 -0.837463  0.417500 0.712500 0
darkrp_alarm_clock_base
0  7.592893 -8.998739 2.407106  -0.707107 0.000000 0.707106  0.417500 0.712500 0
0  6.885787 9.063761 1.700000  0.677598 0.012701 -0.735323  0.417500 0.531875 0
0  6.885787 -8.998739 1.700000  0.637986 -0.209200 -0.741087  0.417500 0.712500 0
darkrp_alarm_clock_base
0  7.592893 9.063761 2.407106  0.000000 -1.000000 -0.000001  0.417500 0.531875 0
0  0.085787 9.063761 8.500001  0.065995 0.997819 -0.001461  0.587500 0.531875 0
0  6.885787 9.063761 1.700000  0.019881 0.999086 -0.037842  0.417500 0.531875 0
darkrp_alarm_clock_base
0  0.792893 9.063761 9.207108  0.707106 0.000000 -0.707107  0.587500 0.531875 0
0  0.085787 -8.998739 8.500001  -0.561238 0.196035 0.804103  0.587500 0.712500 0
0  0.085787 9.063761 8.500001  -0.671836 -0.045633 0.739293  0.587500 0.531875 0
darkrp_alarm_clock_glass
0  0.792893 9.063761 9.207108  0.707107 0.000000 0.707107  0.000000 0.000000 0
0  7.592893 -8.998739 2.407106  0.707107 0.000000 0.707107  0.000000 0.000000 0
0  7.592893 9.063761 2.407106  0.707107 0.000000 0.707107  0.000000 0.000000 0
darkrp_alarm_clock_base
0  7.946447 -10.000000 2.053553  0.707108 0.000001 0.707106  0.425506 0.750000 0
0  8.123270 -9.896381 1.876730  0.765012 -0.272315 0.583611  0.419864 0.746119 0
0  8.050158 -9.646224 1.949842  0.715007 -0.011333 0.699026  0.417500 0.736750 0
darkrp_alarm_clock_base
0  -9.981369 -9.930470 9.354417  -0.702818 -0.702824 0.109935  0.000276 0.000364 0
0  -9.930470 -9.981369 9.354417  -0.702819 -0.702824 0.109930  0.003346 0.004396 0
0  -9.860939 -10.000000 9.522792  -0.605820 -0.743882 0.282174  0.006648 0.008779 0
darkrp_alarm_clock_base
0  8.000000 -9.500000 0.000000  0.622032 -0.251744 -0.741419  0.000000 0.000000 0
0  7.930475 -9.915852 0.082869  0.622032 -0.251744 -0.741418  0.130122 0.259103 0
0  7.853553 -9.853554 0.000000  0.622043 -0.251742 -0.741410  0.000000 0.000000 0
darkrp_alarm_clock_base
0  7.500000 -10.000000 0.000000  0.264277 -0.652901 -0.709844  0.364583 0.729167 0
0  7.930475 -9.915852 0.082869  0.474144 -0.675131 -0.565143  0.130122 0.259103 0
0  7.879004 -10.000000 0.144218  0.474167 -0.675096 -0.565165  0.375805 0.744953 0
darkrp_alarm_clock_base
0  8.086893 -10.000000 0.492392  0.653052 -0.652969 -0.383608  0.120926 0.217232 0
0  7.930475 -9.915852 0.082869  0.474144 -0.675131 -0.565143  0.130122 0.259103 0
0  8.025451 -9.853554 0.144218  0.653031 -0.652992 -0.383603  0.034495 0.061966 0
darkrp_alarm_clock_base
0  8.300000 -9.500000 1.700000  0.953486 -0.023005 0.300558  0.000000 0.000000 0
0  8.217432 -9.897876 1.713278  0.855348 -0.365660 0.366978  0.313319 0.561566 0
0  8.274549 -9.853554 1.555782  0.966061 -0.254574 0.043799  0.000000 0.000000 0
darkrp_alarm_clock_base
0  8.050158 -9.646224 1.949842  0.715007 -0.011333 0.699026  0.417500 0.736750 0
0  8.217432 -9.897876 1.713278  0.855348 -0.365660 0.366978  0.313319 0.561566 0
0  8.226823 -9.749934 1.773177  0.839665 -0.107560 0.532346  0.415114 0.740634 0
darkrp_alarm_clock_base
0  7.946447 -10.000000 2.053553  0.729256 -0.541541 0.418233  0.425506 0.750000 0
0  8.217432 -9.897876 1.713278  0.855348 -0.365660 0.366978  0.313319 0.561566 0
0  8.123270 -9.896381 1.876730  0.765012 -0.272315 0.583611  0.419864 0.746119 0
darkrp_alarm_clock_base
0  8.213108 -10.000000 1.207608  0.844167 -0.526825 0.099179  0.296574 0.532768 0
0  8.217432 -9.897876 1.713278  0.855348 -0.365660 0.366978  0.313319 0.561566 0
0  8.170997 -10.000000 1.659335  0.808381 -0.540414 0.233393  0.402393 0.722861 0
darkrp_alarm_clock_base
0  0.792893 10.000000 9.207108  0.701668 -0.000004 0.712504  0.587500 0.500000 0
0  0.792893 9.063761 9.207108  0.699687 0.000019 0.714450  0.587500 0.531875 0
0  7.592893 9.063761 2.407106  0.707107 -0.000001 0.707107  0.417500 0.531875 0
darkrp_alarm_clock_base
0  8.000000 9.500000 0.000000  0.622032 0.251744 -0.741419  0.000000 0.000000 0
0  7.930475 9.915852 0.082869  0.622032 0.251744 -0.741419  0.125571 0.166667 0
0  8.025451 9.853554 0.144218  0.622021 0.251744 -0.741428  0.000924 0.001659 0
darkrp_alarm_clock_base
0  8.086893 10.000000 0.492392  0.653051 0.652971 -0.383607  0.387310 0.500000 0
0  7.930475 9.915852 0.082869  0.474167 0.675092 -0.565170  0.125571 0.166667 0
0  7.879004 10.000000 0.144218  0.474165 0.675096 -0.565166  0.375805 0.496635 0
darkrp_alarm_clock_base
0  7.500000 10.000000 0.000000  0.264278 0.652971 -0.709779  0.000000 0.000000 0
0  7.930475 9.915852 0.082869  0.474167 0.675092 -0.565170  0.125571 0.166667 0
0  7.853553 9.853554 0.000000  0.264276 0.652990 -0.709762  0.000000 0.000000 0
darkrp_alarm_clock_base
0  8.213108 10.000000 1.207608  0.844178 0.526818 0.099129  0.405190 0.500000 0
0  8.216444 9.899319 1.714264  0.854338 0.367664 0.367327  0.209549 0.250944 0
0  8.274549 9.853554 1.555782  0.966061 0.254359 0.045031  0.413895 0.500000 0
darkrp_alarm_clock_base
0  7.946447 10.000000 2.053553  0.726124 0.548039 0.415208  0.425506 0.500000 0
0  8.216444 9.899319 1.714264  0.854338 0.367664 0.367327  0.209549 0.250944 0
0  8.170997 10.000000 1.659335  0.807400 0.542979 0.230821  0.418500 0.500000 0
darkrp_alarm_clock_base
0  8.041907 9.658275 1.958092  0.715100 0.011179 0.698933  0.000000 0.000000 0
0  8.216444 9.899319 1.714264  0.854338 0.367664 0.367327  0.209549 0.250944 0
0  8.120853 9.899911 1.879147  0.764671 0.277629 0.581550  0.000000 0.000000 0
darkrp_alarm_clock_base
0  8.300000 9.500000 1.700000  0.953472 0.023253 0.300585  0.010437 0.018750 0
0  8.216444 9.899319 1.714264  0.854338 0.367664 0.367327  0.209549 0.250944 0
0  8.224406 9.753465 1.775594  0.837739 0.106694 0.535547  0.005953 0.010695 0
darkrp_alarm_clock_base
0  -9.000000 -10.000000 0.000000  -0.120032 -0.992714 -0.010514  0.020833 0.041667 0
0  0.792893 -10.000000 9.207108  0.000101 -1.000000 0.000973  0.587500 0.750000 0
0  -2.122363 -9.976824 9.983808  0.000087 -1.000000 0.000984  0.566424 0.679709 0
darkrp_alarm_clock_base
0  -0.006788 6.195192 9.983611  0.376563 0.000296 0.926391  0.000000 0.000000 0
0  -0.034924 9.720690 9.915687  0.373603 0.215543 0.902198  0.000000 0.000000 0
0  -0.154432 9.537857 9.987045  0.204648 0.058704 0.977074  0.000000 0.000000 0
darkrp_alarm_clock_base
0  0.100039 9.537857 9.881639  0.541702 0.058642 0.838523  0.000000 0.000000 0
0  0.079275 9.880675 9.802004  0.413781 0.453644 0.789298  0.000000 0.000000 0
0  -0.034924 9.720690 9.915687  0.373603 0.215543 0.902198  0.000000 0.000000 0
darkrp_alarm_clock_base
0  0.553377 9.976824 9.423724  0.483862 0.483645 0.729359  0.593657 0.500000 0
0  0.079275 9.880675 9.802004  0.413781 0.453644 0.789298  0.618683 0.500000 0
0  0.308728 9.832582 9.673089  0.600235 0.236870 0.763944  0.609041 0.500000 0
darkrp_alarm_clock_base
0  0.160762 9.981647 9.672405  0.437002 0.531814 0.725399  0.606494 0.495667 0
0  -0.196060 9.880675 9.916052  0.248962 0.464684 0.849757  0.613194 0.490556 0
0  0.079275 9.880675 9.802004  0.413781 0.453644 0.789298  0.618683 0.500000 0
darkrp_alarm_clock_base
0  -2.122363 9.976824 9.983808  0.056724 0.548611 0.834152  0.000000 0.000000 0
0  -0.196060 9.880675 9.916052  0.248962 0.464684 0.849757  0.000000 0.000000 0
0  -0.345320 9.981647 9.882031  0.114800 0.580576 0.806072  0.000000 0.000000 0
darkrp_alarm_clock_base
0  -0.449465 9.832582 9.987143  0.064381 0.291327 0.954454  0.000000 0.000000 0
0  -0.034924 9.720690 9.915687  0.373603 0.215543 0.902198  0.000000 0.000000 0
0  -0.196060 9.880675 9.916052  0.248962 0.464684 0.849757  0.000000 0.000000 0
darkrp_alarm_clock_base
0  -0.034924 9.720690 9.915687  0.373603 0.215543 0.902198  0.000000 0.000000 0
0  0.079275 9.880675 9.802004  0.413781 0.453644 0.789298  0.000000 0.000000 0
0  -0.196060 9.880675 9.916052  0.248962 0.464684 0.849757  0.609374 0.488631 0
darkrp_alarm_clock_base
0  -2.122363 -9.976824 9.983808  0.056725 -0.548609 0.834152  0.566424 0.679709 0
0  -0.196060 -9.880675 9.916052  0.248955 -0.464661 0.849772  0.613194 0.735833 0
0  -0.449465 -9.832582 9.987143  0.064369 -0.291310 0.954461  0.595174 0.714209 0
darkrp_alarm_clock_base
0  -0.345320 -9.981647 9.882031  0.114803 -0.580590 0.806062  0.596564 0.717839 0
0  0.079275 -9.880675 9.802004  0.413749 -0.453724 0.789269  0.618683 0.750000 0
0  -0.196060 -9.880675 9.916052  0.248955 -0.464661 0.849772  0.613194 0.735833 0
darkrp_alarm_clock_base
0  0.553377 -9.976824 9.423723  0.483865 -0.483648 0.729356  0.000000 0.000000 0
0  0.079275 -9.880675 9.802004  0.413749 -0.453724 0.789269  0.000000 0.000000 0
0  0.160762 -9.981647 9.672405  0.436993 -0.531823 0.725398  0.000000 0.000000 0
darkrp_alarm_clock_base
0  0.308728 -9.832582 9.673089  0.600240 -0.236872 0.763939  0.000000 0.000000 0
0  -0.034924 -9.720690 9.915687  0.373734 -0.216006 0.902033  0.000000 0.000000 0
0  0.079275 -9.880675 9.802004  0.413749 -0.453724 0.789269  0.000000 0.000000 0
darkrp_alarm_clock_base
0  -0.007920 -6.673124 9.980880  0.376203 -0.000375 0.926537  0.000000 0.000000 0
0  -0.034924 -9.720690 9.915687  0.373734 -0.216006 0.902033  0.000000 0.000000 0
0  0.100039 -9.537857 9.881639  0.542034 -0.059543 0.838244  0.000000 0.000000 0
darkrp_alarm_clock_base
0  -0.154432 -9.537857 9.987045  0.204185 -0.059603 0.977116  0.000000 0.000000 0
0  -0.196060 -9.880675 9.916052  0.248955 -0.464661 0.849772  0.000000 0.000000 0
0  -0.034924 -9.720690 9.915687  0.373734 -0.216006 0.902033  0.000000 0.000000 0
darkrp_alarm_clock_base
0  -0.196060 -9.880675 9.916052  0.248955 -0.464661 0.849772  0.000000 0.000000 0
0  0.079275 -9.880675 9.802004  0.413749 -0.453724 0.789269  0.613923 0.744713 0
0  -0.034924 -9.720690 9.915687  0.373734 -0.216006 0.902033  0.000000 0.000000 0
darkrp_alarm_clock_base
0  -9.062783 10.000000 10.000000  -0.225299 0.688926 0.688928  0.000000 0.000000 0
0  -9.735043 9.890076 9.890075  -0.412163 0.644252 0.644252  0.000000 0.000000 0
0  -9.522792 9.860939 10.000000  -0.274235 0.610484 0.743037  0.000000 0.000000 0
darkrp_alarm_clock_base
0  -9.522792 9.860939 10.000000  -0.274235 0.610484 0.743037  0.000000 0.000000 0
0  -9.890075 9.735043 9.890076  -0.644252 0.412163 0.644253  0.000000 0.000000 0
0  -9.860939 9.522792 10.000000  -0.610487 0.274243 0.743032  0.000000 0.000000 0
darkrp_alarm_clock_base
0  -10.000000 9.062783 10.000000  -0.688928 0.225299 0.688926  0.000000 0.000000 0
0  -9.890075 9.735043 9.890076  -0.644252 0.412163 0.644253  0.000000 0.000000 0
0  -10.000000 9.522792 9.860939  -0.743037 0.274235 0.610484  0.000000 0.000000 0
darkrp_alarm_clock_base
0  -10.000000 9.522792 9.860939  -0.743037 0.274235 0.610484  0.000000 0.000000 0
0  -9.890076 9.890075 9.735043  -0.643902 0.643899 0.413260  0.000000 0.000000 0
0  -10.000000 9.860939 9.522792  -0.743882 0.605820 0.282174  0.000000 0.000000 0
darkrp_alarm_clock_base
0  -9.860939 10.000000 9.522792  -0.605819 0.743882 0.282175  0.006648 0.005853 0
0  -9.735043 9.890076 9.890075  -0.412163 0.644252 0.644252  0.016560 0.013248 0
0  -9.522792 10.000000 9.860939  -0.274243 0.743032 0.610487  0.027763 0.022750 0
darkrp_alarm_clock_base
0  -9.735043 9.890076 9.890075  -0.412163 0.644252 0.644252  0.015075 0.012449 0
0  -9.890076 9.890075 9.735043  -0.643902 0.643899 0.413260  0.000000 0.000000 0
0  -9.890075 9.735043 9.890076  -0.644252 0.412163 0.644253  0.000000 0.000000 0
darkrp_alarm_clock_base
0  -10.000000 -9.062783 10.000000  -0.688928 -0.225299 0.688926  0.000000 0.000000 0
0  -9.890075 -9.735043 9.890076  -0.644252 -0.412163 0.644252  0.000000 0.000000 0
0  -9.860939 -9.522792 10.000000  -0.610487 -0.274240 0.743033  0.000000 0.000000 0
darkrp_alarm_clock_base
0  -10.000000 -9.522792 9.860939  -0.743037 -0.274237 0.610484  0.000000 0.000000 0
0  -9.890076 -9.890075 9.735043  -0.643902 -0.643900 0.413260  0.000000 0.000000 0
0  -9.890075 -9.735043 9.890076  -0.644252 -0.412163 0.644252  0.000000 0.000000 0
darkrp_alarm_clock_base
0  -9.860939 -10.000000 9.522792  -0.605820 -0.743882 0.282174  0.006648 0.008779 0
0  -9.735043 -9.890076 9.890075  -0.412164 -0.644252 0.644252  0.016560 0.019872 0
0  -9.890076 -9.890075 9.735043  -0.643902 -0.643900 0.413260  0.000000 0.000000 0
darkrp_alarm_clock_base
0  -9.062783 -10.000000 10.000000  -0.225299 -0.688926 0.688928  0.000000 0.000000 0
0  -9.735043 -9.890076 9.890075  -0.412164 -0.644252 0.644252  0.000000 0.000000 0
0  -9.522792 -10.000000 9.860939  -0.274240 -0.743033 0.610487  0.000000 0.000000 0
darkrp_alarm_clock_base
0  -9.522792 -9.860939 10.000000  -0.274237 -0.610484 0.743037  0.000000 0.000000 0
0  -9.890075 -9.735043 9.890076  -0.644252 -0.412163 0.644252  0.000000 0.000000 0
0  -9.735043 -9.890076 9.890075  -0.412164 -0.644252 0.644252  0.000000 0.000000 0
darkrp_alarm_clock_base
0  -9.890075 -9.735043 9.890076  -0.644252 -0.412163 0.644252  0.000000 0.000000 0
0  -9.890076 -9.890075 9.735043  -0.643902 -0.643900 0.413260  0.000000 0.000000 0
0  -9.735043 -9.890076 9.890075  -0.412164 -0.644252 0.644252  0.015075 0.018673 0
darkrp_alarm_clock_base
0  -10.000000 9.062783 10.000000  -1.000000 0.000000 0.000000  0.000000 0.000000 0
0  -10.000000 9.522792 9.860939  -1.000000 0.000000 0.000000  0.000000 0.000000 0
0  -10.000000 9.860939 9.522792  -0.998970 0.045180 -0.004149  0.000000 0.000000 0
darkrp_alarm_clock_base
0  -10.000000 -9.860939 9.522792  -0.998968 -0.045223 -0.004152  0.000000 0.000000 0
0  -9.866026 -9.500000 0.000000  -0.967349 -0.252385 -0.023175  0.000000 0.000000 0
0  -9.981369 -9.930470 9.354417  -0.967365 -0.252323 -0.023174  0.000276 0.000364 0
darkrp_alarm_clock_base
0  -9.981369 -9.930470 9.354417  -0.702818 -0.702824 0.109935  0.000276 0.000364 0
0  -9.500000 -9.866026 0.000000  -0.706505 -0.706506 -0.041223  0.010417 0.020833 0
0  -9.930470 -9.981369 9.354417  -0.702819 -0.702824 0.109930  0.003346 0.004396 0
darkrp_alarm_clock_base
0  -9.930470 -9.981369 9.354417  -0.252353 -0.967358 -0.023172  0.003346 0.004396 0
0  -9.000000 -10.000000 0.000000  -0.120032 -0.992714 -0.010514  0.020833 0.041667 0
0  -9.860939 -10.000000 9.522792  -0.045116 -0.998976 -0.003354  0.006648 0.008779 0
darkrp_alarm_clock_base
0  -9.000000 10.000000 0.000000  -0.119980 0.992721 -0.010509  0.020833 0.027778 0
0  -2.122363 9.976824 9.983808  0.000087 0.999999 0.000984  0.566424 0.453139 0
0  0.792893 10.000000 9.207108  0.000101 1.000000 0.000974  0.587500 0.500000 0
darkrp_alarm_clock_base
0  -9.860939 10.000000 9.522792  -0.045109 0.998976 -0.003354  0.006648 0.005853 0
0  -9.500000 9.866026 0.000000  -0.252383 0.967350 -0.023176  0.010417 0.013889 0
0  -9.930470 9.981369 9.354417  -0.252342 0.967361 -0.023174  0.003346 0.002931 0
darkrp_alarm_clock_base
0  -9.930470 9.981369 9.354417  -0.702819 0.702823 0.109935  0.003346 0.002931 0
0  -9.866026 9.500000 0.000000  -0.706505 0.706506 -0.041223  0.000000 0.000000 0
0  -9.981369 9.930470 9.354417  -0.702819 0.702823 0.109931  0.000276 0.000243 0
darkrp_alarm_clock_base
0  -9.981369 9.930470 9.354417  -0.967359 0.252347 -0.023171  0.000276 0.000243 0
0  -10.000000 9.000000 0.000000  -0.992698 0.120120 -0.011032  0.000000 0.000000 0
0  -10.000000 9.860939 9.522792  -0.998970 0.045180 -0.004149  0.000000 0.000000 0
darkrp_alarm_clock_base
0  -9.000000 -10.000000 0.000000  0.000000 0.000000 -1.000000  0.000000 0.000000 0
0  -10.000000 -9.000000 0.000000  0.000000 0.000000 -1.000000  0.000000 0.000000 0
0  8.000000 -9.500000 0.000000  0.000000 0.000000 -1.000000  0.000000 0.000000 0
darkrp_alarm_clock_base
0  8.025451 9.853554 0.144218  0.984784 0.000000 -0.173784  0.000924 0.001659 0
0  8.086893 10.000000 0.492392  0.984783 0.000000 -0.173786  0.000000 0.000000 0
0  8.000000 9.500000 0.000000  0.984784 -0.000000 -0.173785  0.000000 0.000000 0
darkrp_alarm_clock_base
0  8.086893 10.000000 0.492392  0.984783 0.000000 -0.173786  0.000000 0.000000 0
0  8.213108 10.000000 1.207608  0.984784 -0.000002 -0.173785  0.000000 0.000000 0
0  8.000000 9.500000 0.000000  0.984784 -0.000000 -0.173785  0.000000 0.000000 0
darkrp_alarm_clock_base
0  8.213108 10.000000 1.207608  0.984784 -0.000002 -0.173785  0.000000 0.000000 0
0  8.274549 9.853554 1.555782  0.966061 0.254359 0.045031  0.002134 0.003833 0
0  8.300000 9.500000 1.700000  0.953472 0.023253 0.300585  0.010437 0.018750 0
darkrp_alarm_clock_base
0  8.300000 9.500000 1.700000  0.953472 0.023253 0.300585  0.010437 0.018750 0
0  8.300000 -9.500000 1.700000  0.953486 -0.023005 0.300558  0.407063 0.731250 0
0  8.000000 -9.500000 0.000000  0.984784 0.000001 -0.173785  0.000000 0.000000 0
darkrp_alarm_clock_base
0  8.300000 -9.500000 1.700000  0.953486 -0.023005 0.300558  0.407063 0.731250 0
0  8.274549 -9.853554 1.555782  0.966061 -0.254574 0.043799  0.379948 0.682542 0
0  8.213108 -10.000000 1.207608  0.984784 -0.000004 -0.173785  0.296574 0.532768 0
darkrp_alarm_clock_base
0  8.086893 -10.000000 0.492392  0.984784 0.000002 -0.173785  0.120926 0.217232 0
0  8.300000 -9.500000 1.700000  0.953486 -0.023005 0.300558  0.407063 0.731250 0
0  8.213108 -10.000000 1.207608  0.984784 -0.000004 -0.173785  0.296574 0.532768 0
darkrp_alarm_clock_base
0  8.086893 -10.000000 0.492392  0.984784 0.000002 -0.173785  0.120926 0.217232 0
0  8.025451 -9.853554 0.144218  0.984784 -0.000002 -0.173784  0.034495 0.061966 0
0  8.000000 -9.500000 0.000000  0.984784 0.000001 -0.173785  0.000000 0.000000 0
darkrp_alarm_clock_base
0  8.000000 -9.500000 0.000000  0.984784 0.000001 -0.173785  0.000000 0.000000 0
0  8.000000 9.500000 0.000000  0.984784 -0.000000 -0.173785  0.000000 0.000000 0
0  8.300000 9.500000 1.700000  0.953472 0.023253 0.300585  0.010437 0.018750 0
darkrp_alarm_clock_base
0  8.300000 9.500000 1.700000  0.953472 0.023253 0.300585  0.010437 0.018750 0
0  8.000000 9.500000 0.000000  0.984784 -0.000000 -0.173785  0.000000 0.000000 0
0  8.213108 10.000000 1.207608  0.984784 -0.000002 -0.173785  0.000000 0.000000 0
darkrp_alarm_clock_base
0  0.792893 -8.998739 9.207108  0.000000 1.000000 0.000000  0.587500 0.712500 0
0  7.592893 -8.998739 2.407106  0.000000 1.000000 0.000000  0.417500 0.712500 0
0  6.885787 -8.998739 1.700000  -0.096376 -0.975151 -0.199478  0.417500 0.712500 0
darkrp_alarm_clock_base
0  0.792893 10.000000 9.207108  0.701668 -0.000004 0.712504  0.000000 0.000000 0
0  0.553377 9.976824 9.423724  0.695947 -0.000015 0.718094  0.000000 0.000000 0
0  0.792893 9.063761 9.207108  0.699687 0.000019 0.714450  0.000000 0.000000 0
darkrp_alarm_clock_base
0  0.553377 9.976824 9.423724  0.695947 -0.000015 0.718094  0.000000 0.000000 0
0  0.308728 9.832582 9.673089  0.600235 0.236870 0.763944  0.000000 0.000000 0
0  0.792893 9.063761 9.207108  0.699687 0.000019 0.714450  0.000000 0.000000 0
darkrp_alarm_clock_base
0  0.308728 9.832582 9.673089  0.600235 0.236870 0.763944  0.000000 0.000000 0
0  0.100039 9.537857 9.881639  0.541702 0.058642 0.838523  0.000000 0.000000 0
0  0.792893 9.063761 9.207108  0.699687 0.000019 0.714450  0.000000 0.000000 0
darkrp_alarm_clock_base
0  0.100039 9.537857 9.881639  0.541702 0.058642 0.838523  0.000000 0.000000 0
0  -0.006788 6.195192 9.983611  0.376563 0.000296 0.926391  0.000000 0.000000 0
0  0.792893 9.063761 9.207108  0.699687 0.000019 0.714450  0.000000 0.000000 0
darkrp_alarm_clock_base
0  -0.006788 6.195192 9.983611  0.376563 0.000296 0.926391  0.000000 0.000000 0
0  -0.007920 -6.673124 9.980880  0.376203 -0.000375 0.926537  0.000000 0.000000 0
0  0.792893 -8.998739 9.207108  0.699669 -0.000088 0.714467  0.000000 0.000000 0
darkrp_alarm_clock_base
0  -0.007920 -6.673124 9.980880  0.376203 -0.000375 0.926537  0.000000 0.000000 0
0  0.100039 -9.537857 9.881639  0.542034 -0.059543 0.838244  0.000000 0.000000 0
0  0.792893 -8.998739 9.207108  0.699669 -0.000088 0.714467  0.000000 0.000000 0
darkrp_alarm_clock_base
0  0.792893 -8.998739 9.207108  0.699669 -0.000088 0.714467  0.000000 0.000000 0
0  0.100039 -9.537857 9.881639  0.542034 -0.059543 0.838244  0.000000 0.000000 0
0  0.308728 -9.832582 9.673089  0.600240 -0.236872 0.763939  0.000000 0.000000 0
darkrp_alarm_clock_base
0  0.308728 -9.832582 9.673089  0.600240 -0.236872 0.763939  0.000000 0.000000 0
0  0.553377 -9.976824 9.423723  0.695944 -0.000009 0.718096  0.000000 0.000000 0
0  0.792893 -8.998739 9.207108  0.699669 -0.000088 0.714467  0.000000 0.000000 0
darkrp_alarm_clock_base
0  0.553377 -9.976824 9.423723  0.695944 -0.000009 0.718096  0.000000 0.000000 0
0  0.792893 -10.000000 9.207108  0.701666 0.000000 0.712506  0.000000 0.000000 0
0  0.792893 -8.998739 9.207108  0.699669 -0.000088 0.714467  0.000000 0.000000 0
darkrp_alarm_clock_base
0  -9.062783 -10.000000 10.000000  0.001702 0.000066 0.999999  0.000000 0.000000 0
0  -2.122363 -9.976824 9.983808  0.001609 0.000047 0.999999  0.000000 0.000000 0
0  -10.000000 -9.062783 10.000000  0.001698 -0.000036 0.999999  0.000000 0.000000 0
darkrp_alarm_clock_base
0  -2.122363 -9.976824 9.983808  0.001609 0.000047 0.999999  0.000000 0.000000 0
0  -0.449465 -9.832582 9.987143  0.064369 -0.291310 0.954461  0.000000 0.000000 0
0  -0.154432 -9.537857 9.987045  0.204185 -0.059603 0.977116  0.000000 0.000000 0
darkrp_alarm_clock_base
0  -0.007920 -6.673124 9.980880  0.376203 -0.000375 0.926537  0.000000 0.000000 0
0  -2.122363 -9.976824 9.983808  0.001609 0.000047 0.999999  0.000000 0.000000 0
0  -0.154432 -9.537857 9.987045  0.204185 -0.059603 0.977116  0.000000 0.000000 0
darkrp_alarm_clock_base
0  -0.007920 -6.673124 9.980880  0.376203 -0.000375 0.926537  0.000000 0.000000 0
0  -0.006788 6.195192 9.983611  0.376563 0.000296 0.926391  0.000000 0.000000 0
0  -10.000000 -9.062783 10.000000  0.001698 -0.000036 0.999999  0.000000 0.000000 0
darkrp_alarm_clock_base
0  -0.006788 6.195192 9.983611  0.376563 0.000296 0.926391  0.000000 0.000000 0
0  -0.154432 9.537857 9.987045  0.204648 0.058704 0.977074  0.000000 0.000000 0
0  -2.122363 9.976824 9.983808  0.001663 0.000004 0.999999  0.000000 0.000000 0
darkrp_alarm_clock_base
0  -0.154432 9.537857 9.987045  0.204648 0.058704 0.977074  0.000000 0.000000 0
0  -0.449465 9.832582 9.987143  0.064381 0.291327 0.954454  0.000000 0.000000 0
0  -2.122363 9.976824 9.983808  0.001663 0.000004 0.999999  0.000000 0.000000 0
darkrp_alarm_clock_base
0  -2.122363 9.976824 9.983808  0.001663 0.000004 0.999999  0.000000 0.000000 0
0  -9.062783 10.000000 10.000000  0.001702 -0.000066 0.999999  0.000000 0.000000 0
0  -10.000000 9.062783 10.000000  0.001711 0.000050 0.999999  0.000000 0.000000 0
darkrp_alarm_clock_base
0  -9.062783 10.000000 10.000000  0.001702 -0.000066 0.999999  0.000000 0.000000 0
0  -9.522792 9.860939 10.000000  0.001678 -0.000001 0.999999  0.000000 0.000000 0
0  -10.000000 9.062783 10.000000  0.001711 0.000050 0.999999  0.000000 0.000000 0
darkrp_alarm_clock_base
0  -9.522792 9.860939 10.000000  0.001678 -0.000001 0.999999  0.000000 0.000000 0
0  -9.860939 9.522792 10.000000  0.001726 -0.000001 0.999999  0.000000 0.000000 0
0  -10.000000 9.062783 10.000000  0.001711 0.000050 0.999999  0.000000 0.000000 0
darkrp_alarm_clock_base
0  -10.000000 9.062783 10.000000  0.001711 0.000050 0.999999  0.000000 0.000000 0
0  -10.000000 -9.062783 10.000000  0.001698 -0.000036 0.999999  0.000000 0.000000 0
0  -0.006788 6.195192 9.983611  0.376563 0.000296 0.926391  0.000000 0.000000 0
darkrp_alarm_clock_base
0  -10.000000 -9.062783 10.000000  0.001698 -0.000036 0.999999  0.000000 0.000000 0
0  -9.860939 -9.522792 10.000000  0.001678 -0.000001 0.999999  0.000000 0.000000 0
0  -9.062783 -10.000000 10.000000  0.001702 0.000066 0.999999  0.000000 0.000000 0
darkrp_alarm_clock_base
0  -0.007920 -6.673124 9.980880  0.376203 -0.000375 0.926537  0.000000 0.000000 0
0  -10.000000 -9.062783 10.000000  0.001698 -0.000036 0.999999  0.000000 0.000000 0
0  -2.122363 -9.976824 9.983808  0.001609 0.000047 0.999999  0.000000 0.000000 0
darkrp_alarm_clock_base
0  -9.860939 -9.522792 10.000000  0.001678 -0.000001 0.999999  0.000000 0.000000 0
0  -9.522792 -9.860939 10.000000  0.001726 -0.000001 0.999999  0.000000 0.000000 0
0  -9.062783 -10.000000 10.000000  0.001702 0.000066 0.999999  0.000000 0.000000 0
darkrp_alarm_clock_base
0  -9.890076 9.890075 9.735043  -0.643902 0.643899 0.413260  0.000000 0.000000 0
0  -9.860939 10.000000 9.522792  -0.605819 0.743882 0.282175  0.006648 0.005853 0
0  -10.000000 9.860939 9.522792  -0.743882 0.605820 0.282174  0.000000 0.000000 0
darkrp_alarm_clock_base
0  -9.860939 10.000000 9.522792  -0.605819 0.743882 0.282175  0.006648 0.005853 0
0  -9.930470 9.981369 9.354417  -0.702819 0.702823 0.109935  0.003346 0.002931 0
0  -10.000000 9.860939 9.522792  -0.743882 0.605820 0.282174  0.000000 0.000000 0
darkrp_alarm_clock_base
0  8.041907 9.658275 1.958092  0.715100 0.011179 0.698933  0.000000 0.000000 0
0  7.592893 9.063761 2.407106  0.707107 -0.000001 0.707107  0.000000 0.000000 0
0  8.300000 9.500000 1.700000  0.953472 0.023253 0.300585  0.000000 0.000000 0
darkrp_alarm_clock_base
0  7.592893 9.063761 2.407106  0.707107 -0.000001 0.707107  0.000000 0.000000 0
0  7.592893 -8.998739 2.407106  0.707107 0.000001 0.707107  0.000000 0.000000 0
0  8.300000 9.500000 1.700000  0.953472 0.023253 0.300585  0.000000 0.000000 0
darkrp_alarm_clock_base
0  7.592893 -8.998739 2.407106  0.707107 0.000001 0.707107  0.000000 0.000000 0
0  8.050158 -9.646224 1.949842  0.715007 -0.011333 0.699026  0.000000 0.000000 0
0  8.300000 -9.500000 1.700000  0.953486 -0.023005 0.300558  0.000000 0.000000 0
darkrp_alarm_clock_base
0  8.050158 -9.646224 1.949842  0.715007 -0.011333 0.699026  0.000000 0.000000 0
0  8.226823 -9.749934 1.773177  0.839665 -0.107560 0.532346  0.000000 0.000000 0
0  8.300000 -9.500000 1.700000  0.953486 -0.023005 0.300558  0.000000 0.000000 0
darkrp_alarm_clock_base
0  8.300000 -9.500000 1.700000  0.953486 -0.023005 0.300558  0.000000 0.000000 0
0  8.300000 9.500000 1.700000  0.953472 0.023253 0.300585  0.000000 0.000000 0
0  7.592893 -8.998739 2.407106  0.707107 0.000001 0.707107  0.000000 0.000000 0
darkrp_alarm_clock_base
0  6.885787 9.063761 1.700000  -0.697479 0.040817 -0.715442  0.417500 0.531875 0
0  0.085787 9.063761 8.500001  -0.673297 -0.047698 -0.737832  0.587500 0.531875 0
0  0.085787 -8.998739 8.500001  -0.544054 0.171731 -0.821288  0.587500 0.712500 0
darkrp_alarm_clock_base
0  7.592893 -8.998739 2.407106  -0.707107 0.000000 0.707106  0.417500 0.712500 0
0  7.592893 9.063761 2.407106  -0.707107 0.000000 0.707107  0.417500 0.531875 0
0  6.885787 9.063761 1.700000  0.677598 0.012701 -0.735323  0.417500 0.531875 0
darkrp_alarm_clock_base
0  7.592893 9.063761 2.407106  0.000000 -1.000000 -0.000001  0.417500 0.531875 0
0  0.792893 9.063761 9.207108  0.000000 -1.000000 0.000000  0.587500 0.531875 0
0  0.085787 9.063761 8.500001  0.065995 0.997819 -0.001461  0.587500 0.531875 0
darkrp_alarm_clock_base
0  0.792893 9.063761 9.207108  0.707106 0.000000 -0.707107  0.587500 0.531875 0
0  0.792893 -8.998739 9.207108  0.707107 0.000000 -0.707107  0.587500 0.712500 0
0  0.085787 -8.998739 8.500001  -0.561238 0.196035 0.804103  0.587500 0.712500 0
darkrp_alarm_clock_glass
0  0.792893 9.063761 9.207108  0.707107 0.000000 0.707107  0.000000 0.000000 0
0  0.792893 -8.998739 9.207108  0.707107 0.000000 0.707107  0.000000 0.000000 0
0  7.592893 -8.998739 2.407106  0.707107 0.000000 0.707107  0.000000 0.000000 0
darkrp_alarm_clock_base
0  8.050158 -9.646224 1.949842  0.715007 -0.011333 0.699026  0.417500 0.736750 0
0  7.592893 -8.998739 2.407106  0.707107 0.000001 0.707107  0.417500 0.712500 0
0  7.946447 -10.000000 2.053553  0.707108 0.000001 0.707106  0.425506 0.750000 0
darkrp_alarm_clock_base
0  7.592893 -8.998739 2.407106  0.707107 0.000001 0.707107  0.417500 0.712500 0
0  0.792893 -8.998739 9.207108  0.699669 -0.000088 0.714467  0.587500 0.712500 0
0  0.792893 -10.000000 9.207108  0.701666 0.000000 0.712506  0.587500 0.750000 0
darkrp_alarm_clock_base
0  7.946447 -10.000000 2.053553  0.707108 0.000001 0.707106  0.425506 0.750000 0
0  7.592893 -8.998739 2.407106  0.707107 0.000001 0.707107  0.417500 0.712500 0
0  0.792893 -10.000000 9.207108  0.701666 0.000000 0.712506  0.587500 0.750000 0
darkrp_alarm_clock_base
0  -9.890076 -9.890075 9.735043  -0.643902 -0.643900 0.413260  0.000000 0.000000 0
0  -10.000000 -9.860939 9.522792  -0.743882 -0.605819 0.282176  0.000000 0.000000 0
0  -9.860939 -10.000000 9.522792  -0.605820 -0.743882 0.282174  0.006648 0.008779 0
darkrp_alarm_clock_base
0  -10.000000 -9.860939 9.522792  -0.743882 -0.605819 0.282176  0.000000 0.000000 0
0  -9.981369 -9.930470 9.354417  -0.702818 -0.702824 0.109935  0.000276 0.000364 0
0  -9.860939 -10.000000 9.522792  -0.605820 -0.743882 0.282174  0.006648 0.008779 0
darkrp_alarm_clock_base
0  8.000000 -9.500000 0.000000  0.622032 -0.251744 -0.741419  0.000000 0.000000 0
0  8.025451 -9.853554 0.144218  0.622021 -0.251745 -0.741428  0.034495 0.061966 0
0  7.930475 -9.915852 0.082869  0.622032 -0.251744 -0.741418  0.130122 0.259103 0
darkrp_alarm_clock_base
0  7.500000 -10.000000 0.000000  0.264277 -0.652901 -0.709844  0.364583 0.729167 0
0  7.853553 -9.853554 0.000000  0.264276 -0.652990 -0.709762  0.371949 0.743898 0
0  7.930475 -9.915852 0.082869  0.474144 -0.675131 -0.565143  0.130122 0.259103 0
darkrp_alarm_clock_base
0  8.086893 -10.000000 0.492392  0.653052 -0.652969 -0.383608  0.120926 0.217232 0
0  7.879004 -10.000000 0.144218  0.474167 -0.675096 -0.565165  0.029263 0.052569 0
0  7.930475 -9.915852 0.082869  0.474144 -0.675131 -0.565143  0.130122 0.259103 0
darkrp_alarm_clock_base
0  8.300000 -9.500000 1.700000  0.953486 -0.023005 0.300558  0.000000 0.000000 0
0  8.226823 -9.749934 1.773177  0.839665 -0.107560 0.532346  0.000000 0.000000 0
0  8.217432 -9.897876 1.713278  0.855348 -0.365660 0.366978  0.313319 0.561566 0
darkrp_alarm_clock_base
0  8.050158 -9.646224 1.949842  0.715007 -0.011333 0.699026  0.417500 0.736750 0
0  8.123270 -9.896381 1.876730  0.765012 -0.272315 0.583611  0.419864 0.746119 0
0  8.217432 -9.897876 1.713278  0.855348 -0.365660 0.366978  0.313319 0.561566 0
darkrp_alarm_clock_base
0  7.946447 -10.000000 2.053553  0.729256 -0.541541 0.418233  0.425506 0.750000 0
0  8.170997 -10.000000 1.659335  0.808381 -0.540414 0.233393  0.414910 0.747525 0
0  8.217432 -9.897876 1.713278  0.855348 -0.365660 0.366978  0.313319 0.561566 0
darkrp_alarm_clock_base
0  8.213108 -10.000000 1.207608  0.844167 -0.526825 0.099179  0.296574 0.532768 0
0  8.274549 -9.853554 1.555782  0.966061 -0.254574 0.043799  0.379948 0.682542 0
0  8.217432 -9.897876 1.713278  0.855348 -0.365660 0.366978  0.313319 0.561566 0
darkrp_alarm_clock_base
0  7.592893 9.063761 2.407106  0.707107 -0.000001 0.707107  0.417500 0.531875 0
0  8.041907 9.658275 1.958092  0.715100 0.011179 0.698933  0.417500 0.511634 0
0  7.946447 10.000000 2.053553  0.707106 -0.000001 0.707107  0.425506 0.500000 0
darkrp_alarm_clock_base
0  8.041907 9.658275 1.958092  0.715100 0.011179 0.698933  0.417500 0.511634 0
0  8.120853 9.899911 1.879147  0.764671 0.277629 0.581550  0.419863 0.503408 0
0  7.946447 10.000000 2.053553  0.707106 -0.000001 0.707107  0.425506 0.500000 0
darkrp_alarm_clock_base
0  7.946447 10.000000 2.053553  0.707106 -0.000001 0.707107  0.425506 0.500000 0
0  0.792893 10.000000 9.207108  0.701668 -0.000004 0.712504  0.587500 0.500000 0
0  7.592893 9.063761 2.407106  0.707107 -0.000001 0.707107  0.417500 0.531875 0
darkrp_alarm_clock_base
0  8.000000 9.500000 0.000000  0.622032 0.251744 -0.741419  0.000000 0.000000 0
0  7.853553 9.853554 0.000000  0.622043 0.251743 -0.741409  0.000000 0.000000 0
0  7.930475 9.915852 0.082869  0.622032 0.251744 -0.741419  0.125571 0.166667 0
darkrp_alarm_clock_base
0  8.086893 10.000000 0.492392  0.653051 0.652971 -0.383607  0.387310 0.500000 0
0  8.025451 9.853554 0.144218  0.653029 0.652995 -0.383602  0.378605 0.500000 0
0  7.930475 9.915852 0.082869  0.474167 0.675092 -0.565170  0.125571 0.166667 0
darkrp_alarm_clock_base
0  7.500000 10.000000 0.000000  0.264278 0.652971 -0.709779  0.000000 0.000000 0
0  7.879004 10.000000 0.144218  0.474165 0.675096 -0.565166  0.000000 0.000000 0
0  7.930475 9.915852 0.082869  0.474167 0.675092 -0.565170  0.125571 0.166667 0
darkrp_alarm_clock_base
0  8.213108 10.000000 1.207608  0.844178 0.526818 0.099129  0.405190 0.500000 0
0  8.170997 10.000000 1.659335  0.807400 0.542979 0.230821  0.414910 0.498350 0
0  8.216444 9.899319 1.714264  0.854338 0.367664 0.367327  0.209549 0.250944 0
darkrp_alarm_clock_base
0  7.946447 10.000000 2.053553  0.726124 0.548039 0.415208  0.425506 0.500000 0
0  8.120853 9.899911 1.879147  0.764671 0.277629 0.581550  0.419863 0.503408 0
0  8.216444 9.899319 1.714264  0.854338 0.367664 0.367327  0.209549 0.250944 0
darkrp_alarm_clock_base
0  8.041907 9.658275 1.958092  0.715100 0.011179 0.698933  0.000000 0.000000 0
0  8.224406 9.753465 1.775594  0.837739 0.106694 0.535547  0.000000 0.000000 0
0  8.216444 9.899319 1.714264  0.854338 0.367664 0.367327  0.209549 0.250944 0
darkrp_alarm_clock_base
0  8.300000 9.500000 1.700000  0.953472 0.023253 0.300585  0.010437 0.018750 0
0  8.274549 9.853554 1.555782  0.966061 0.254359 0.045031  0.002134 0.003833 0
0  8.216444 9.899319 1.714264  0.854338 0.367664 0.367327  0.209549 0.250944 0
darkrp_alarm_clock_base
0  -9.000000 -10.000000 0.000000  -0.120032 -0.992714 -0.010514  0.020833 0.041667 0
0  7.500000 -10.000000 0.000000  0.000086 -1.000000 0.000859  0.364583 0.729167 0
0  0.792893 -10.000000 9.207108  0.000101 -1.000000 0.000973  0.587500 0.750000 0
darkrp_alarm_clock_base
0  7.500000 -10.000000 0.000000  0.000086 -1.000000 0.000859  0.364583 0.729167 0
0  7.879004 -10.000000 0.144218  0.000096 -1.000000 0.000954  0.375805 0.744953 0
0  8.086893 -10.000000 0.492392  0.000091 -1.000000 0.000906  0.387310 0.750000 0
darkrp_alarm_clock_base
0  7.946447 -10.000000 2.053553  0.000086 -1.000000 0.000859  0.425506 0.750000 0
0  7.500000 -10.000000 0.000000  0.000086 -1.000000 0.000859  0.364583 0.729167 0
0  8.213108 -10.000000 1.207608  0.000086 -1.000000 0.000859  0.405190 0.750000 0
darkrp_alarm_clock_base
0  8.086893 -10.000000 0.492392  0.000091 -1.000000 0.000906  0.387310 0.750000 0
0  8.213108 -10.000000 1.207608  0.000086 -1.000000 0.000859  0.405190 0.750000 0
0  7.500000 -10.000000 0.000000  0.000086 -1.000000 0.000859  0.364583 0.729167 0
darkrp_alarm_clock_base
0  8.213108 -10.000000 1.207608  0.000086 -1.000000 0.000859  0.405190 0.750000 0
0  8.170997 -10.000000 1.659335  0.000096 -1.000000 0.000954  0.414910 0.747525 0
0  7.946447 -10.000000 2.053553  0.000086 -1.000000 0.000859  0.425506 0.750000 0
darkrp_alarm_clock_base
0  7.946447 -10.000000 2.053553  0.000086 -1.000000 0.000859  0.425506 0.750000 0
0  0.792893 -10.000000 9.207108  0.000101 -1.000000 0.000973  0.587500 0.750000 0
0  7.500000 -10.000000 0.000000  0.000086 -1.000000 0.000859  0.364583 0.729167 0
darkrp_alarm_clock_base
0  0.792893 -10.000000 9.207108  0.000101 -1.000000 0.000973  0.587500 0.750000 0
0  0.553377 -9.976824 9.423723  0.000126 -1.000000 0.000977  0.593657 0.750000 0
0  0.160762 -9.981647 9.672405  0.000122 -1.000000 0.001001  0.606494 0.743501 0
darkrp_alarm_clock_base
0  0.160762 -9.981647 9.672405  0.000122 -1.000000 0.001001  0.606494 0.743501 0
0  -0.345320 -9.981647 9.882031  0.000098 -0.999999 0.000994  0.596564 0.717839 0
0  0.792893 -10.000000 9.207108  0.000101 -1.000000 0.000973  0.587500 0.750000 0
darkrp_alarm_clock_base
0  -0.345320 -9.981647 9.882031  0.000098 -0.999999 0.000994  0.596564 0.717839 0
0  -2.122363 -9.976824 9.983808  0.000087 -1.000000 0.000984  0.566424 0.679709 0
0  0.792893 -10.000000 9.207108  0.000101 -1.000000 0.000973  0.587500 0.750000 0
darkrp_alarm_clock_base
0  -2.122363 -9.976824 9.983808  0.000087 -1.000000 0.000984  0.566424 0.679709 0
0  -9.062783 -10.000000 10.000000  0.000152 -1.000000 0.000937  0.058576 0.070291 0
0  -9.000000 -10.000000 0.000000  -0.120032 -0.992714 -0.010514  0.020833 0.041667 0
darkrp_alarm_clock_base
0  -9.062783 -10.000000 10.000000  0.000152 -1.000000 0.000937  0.058576 0.070291 0
0  -9.522792 -10.000000 9.860939  0.000096 -0.999999 0.000954  0.027763 0.034125 0
0  -9.860939 -10.000000 9.522792  -0.045116 -0.998976 -0.003354  0.006648 0.008779 0
darkrp_alarm_clock_base
0  -9.860939 -10.000000 9.522792  -0.045116 -0.998976 -0.003354  0.006648 0.008779 0
0  -9.000000 -10.000000 0.000000  -0.120032 -0.992714 -0.010514  0.020833 0.041667 0
0  -9.062783 -10.000000 10.000000  0.000152 -1.000000 0.000937  0.058576 0.070291 0
darkrp_alarm_clock_base
0  -0.006788 6.195192 9.983611  0.376563 0.000296 0.926391  0.000000 0.000000 0
0  0.100039 9.537857 9.881639  0.541702 0.058642 0.838523  0.000000 0.000000 0
0  -0.034924 9.720690 9.915687  0.373603 0.215543 0.902198  0.000000 0.000000 0
darkrp_alarm_clock_base
0  0.100039 9.537857 9.881639  0.541702 0.058642 0.838523  0.000000 0.000000 0
0  0.308728 9.832582 9.673089  0.600235 0.236870 0.763944  0.000000 0.000000 0
0  0.079275 9.880675 9.802004  0.413781 0.453644 0.789298  0.000000 0.000000 0
darkrp_alarm_clock_base
0  0.553377 9.976824 9.423724  0.483862 0.483645 0.729359  0.593657 0.500000 0
0  0.160762 9.981647 9.672405  0.437002 0.531814 0.725399  0.606494 0.495667 0
0  0.079275 9.880675 9.802004  0.413781 0.453644 0.789298  0.618683 0.500000 0
darkrp_alarm_clock_base
0  0.160762 9.981647 9.672405  0.437002 0.531814 0.725399  0.606494 0.495667 0
0  -0.345320 9.981647 9.882031  0.114800 0.580576 0.806072  0.596564 0.478560 0
0  -0.196060 9.880675 9.916052  0.248962 0.464684 0.849757  0.613194 0.490556 0
darkrp_alarm_clock_base
0  -2.122363 9.976824 9.983808  0.056724 0.548611 0.834152  0.000000 0.000000 0
0  -0.449465 9.832582 9.987143  0.064381 0.291327 0.954454  0.000000 0.000000 0
0  -0.196060 9.880675 9.916052  0.248962 0.464684 0.849757  0.000000 0.000000 0
darkrp_alarm_clock_base
0  -0.449465 9.832582 9.987143  0.064381 0.291327 0.954454  0.000000 0.000000 0
0  -0.154432 9.537857 9.987045  0.204648 0.058704 0.977074  0.000000 0.000000 0
0  -0.034924 9.720690 9.915687  0.373603 0.215543 0.902198  0.000000 0.000000 0
darkrp_alarm_clock_base
0  -2.122363 -9.976824 9.983808  0.056725 -0.548609 0.834152  0.566424 0.679709 0
0  -0.345320 -9.981647 9.882031  0.114803 -0.580590 0.806062  0.596564 0.717839 0
0  -0.196060 -9.880675 9.916052  0.248955 -0.464661 0.849772  0.613194 0.735833 0
darkrp_alarm_clock_base
0  -0.345320 -9.981647 9.882031  0.114803 -0.580590 0.806062  0.596564 0.717839 0
0  0.160762 -9.981647 9.672405  0.436993 -0.531823 0.725398  0.606494 0.743501 0
0  0.079275 -9.880675 9.802004  0.413749 -0.453724 0.789269  0.618683 0.750000 0
darkrp_alarm_clock_base
0  0.553377 -9.976824 9.423723  0.483865 -0.483648 0.729356  0.000000 0.000000 0
0  0.308728 -9.832582 9.673089  0.600240 -0.236872 0.763939  0.000000 0.000000 0
0  0.079275 -9.880675 9.802004  0.413749 -0.453724 0.789269  0.000000 0.000000 0
darkrp_alarm_clock_base
0  0.308728 -9.832582 9.673089  0.600240 -0.236872 0.763939  0.000000 0.000000 0
0  0.100039 -9.537857 9.881639  0.542034 -0.059543 0.838244  0.000000 0.000000 0
0  -0.034924 -9.720690 9.915687  0.373734 -0.216006 0.902033  0.000000 0.000000 0
darkrp_alarm_clock_base
0  -0.007920 -6.673124 9.980880  0.376203 -0.000375 0.926537  0.000000 0.000000 0
0  -0.154432 -9.537857 9.987045  0.204185 -0.059603 0.977116  0.000000 0.000000 0
0  -0.034924 -9.720690 9.915687  0.373734 -0.216006 0.902033  0.000000 0.000000 0
darkrp_alarm_clock_base
0  -0.154432 -9.537857 9.987045  0.204185 -0.059603 0.977116  0.000000 0.000000 0
0  -0.449465 -9.832582 9.987143  0.064369 -0.291310 0.954461  0.000000 0.000000 0
0  -0.196060 -9.880675 9.916052  0.248955 -0.464661 0.849772  0.000000 0.000000 0
darkrp_alarm_clock_base
0  -9.062783 10.000000 10.000000  -0.225299 0.688926 0.688928  0.000000 0.000000 0
0  -9.522792 10.000000 9.860939  -0.274243 0.743032 0.610487  0.000000 0.000000 0
0  -9.735043 9.890076 9.890075  -0.412163 0.644252 0.644252  0.000000 0.000000 0
darkrp_alarm_clock_base
0  -9.522792 9.860939 10.000000  -0.274235 0.610484 0.743037  0.000000 0.000000 0
0  -9.735043 9.890076 9.890075  -0.412163 0.644252 0.644252  0.000000 0.000000 0
0  -9.890075 9.735043 9.890076  -0.644252 0.412163 0.644253  0.000000 0.000000 0
darkrp_alarm_clock_base
0  -10.000000 9.062783 10.000000  -0.688928 0.225299 0.688926  0.000000 0.000000 0
0  -9.860939 9.522792 10.000000  -0.610487 0.274243 0.743032  0.000000 0.000000 0
0  -9.890075 9.735043 9.890076  -0.644252 0.412163 0.644253  0.000000 0.000000 0
darkrp_alarm_clock_base
0  -10.000000 9.522792 9.860939  -0.743037 0.274235 0.610484  0.000000 0.000000 0
0  -9.890075 9.735043 9.890076  -0.644252 0.412163 0.644253  0.000000 0.000000 0
0  -9.890076 9.890075 9.735043  -0.643902 0.643899 0.413260  0.000000 0.000000 0
darkrp_alarm_clock_base
0  -9.860939 10.000000 9.522792  -0.605819 0.743882 0.282175  0.006648 0.005853 0
0  -9.890076 9.890075 9.735043  -0.643902 0.643899 0.413260  0.000000 0.000000 0
0  -9.735043 9.890076 9.890075  -0.412163 0.644252 0.644252  0.016560 0.013248 0
darkrp_alarm_clock_base
0  -10.000000 -9.062783 10.000000  -0.688928 -0.225299 0.688926  0.000000 0.000000 0
0  -10.000000 -9.522792 9.860939  -0.743037 -0.274237 0.610484  0.000000 0.000000 0
0  -9.890075 -9.735043 9.890076  -0.644252 -0.412163 0.644252  0.000000 0.000000 0
darkrp_alarm_clock_base
0  -10.000000 -9.522792 9.860939  -0.743037 -0.274237 0.610484  0.000000 0.000000 0
0  -10.000000 -9.860939 9.522792  -0.743882 -0.605819 0.282176  0.000000 0.000000 0
0  -9.890076 -9.890075 9.735043  -0.643902 -0.643900 0.413260  0.000000 0.000000 0
darkrp_alarm_clock_base
0  -9.860939 -10.000000 9.522792  -0.605820 -0.743882 0.282174  0.006648 0.008779 0
0  -9.522792 -10.000000 9.860939  -0.274240 -0.743033 0.610487  0.027763 0.034125 0
0  -9.735043 -9.890076 9.890075  -0.412164 -0.644252 0.644252  0.016560 0.019872 0
darkrp_alarm_clock_base
0  -9.062783 -10.000000 10.000000  -0.225299 -0.688926 0.688928  0.000000 0.000000 0
0  -9.522792 -9.860939 10.000000  -0.274237 -0.610484 0.743037  0.000000 0.000000 0
0  -9.735043 -9.890076 9.890075  -0.412164 -0.644252 0.644252  0.000000 0.000000 0
darkrp_alarm_clock_base
0  -9.522792 -9.860939 10.000000  -0.274237 -0.610484 0.743037  0.000000 0.000000 0
0  -9.860939 -9.522792 10.000000  -0.610487 -0.274240 0.743033  0.000000 0.000000 0
0  -9.890075 -9.735043 9.890076  -0.644252 -0.412163 0.644252  0.000000 0.000000 0
darkrp_alarm_clock_base
0  -10.000000 9.860939 9.522792  -0.998970 0.045180 -0.004149  0.000000 0.000000 0
0  -10.000000 9.000000 0.000000  -0.992698 0.120120 -0.011032  0.000000 0.000000 0
0  -10.000000 9.062783 10.000000  -1.000000 0.000000 0.000000  0.000000 0.000000 0
darkrp_alarm_clock_base
0  -10.000000 9.000000 0.000000  -0.992698 0.120120 -0.011032  0.000000 0.000000 0
0  -10.000000 -9.000000 0.000000  -0.992706 -0.120052 -0.011025  0.000000 0.000000 0
0  -10.000000 9.062783 10.000000  -1.000000 0.000000 0.000000  0.000000 0.000000 0
darkrp_alarm_clock_base
0  -10.000000 -9.000000 0.000000  -0.992706 -0.120052 -0.011025  0.000000 0.000000 0
0  -10.000000 -9.860939 9.522792  -0.998968 -0.045223 -0.004152  0.000000 0.000000 0
0  -10.000000 -9.062783 10.000000  -1.000000 0.000000 0.000000  0.000000 0.000000 0
darkrp_alarm_clock_base
0  -10.000000 -9.860939 9.522792  -0.998968 -0.045223 -0.004152  0.000000 0.000000 0
0  -10.000000 -9.522792 9.860939  -1.000000 0.000000 0.000000  0.000000 0.000000 0
0  -10.000000 -9.062783 10.000000  -1.000000 0.000000 0.000000  0.000000 0.000000 0
darkrp_alarm_clock_base
0  -10.000000 -9.062783 10.000000  -1.000000 0.000000 0.000000  0.000000 0.000000 0
0  -10.000000 9.062783 10.000000  -1.000000 0.000000 0.000000  0.000000 0.000000 0
0  -10.000000 -9.000000 0.000000  -0.992706 -0.120052 -0.011025  0.000000 0.000000 0
darkrp_alarm_clock_base
0  -10.000000 -9.860939 9.522792  -0.998968 -0.045223 -0.004152  0.000000 0.000000 0
0  -10.000000 -9.000000 0.000000  -0.992706 -0.120052 -0.011025  0.000000 0.000000 0
0  -9.866026 -9.500000 0.000000  -0.967349 -0.252385 -0.023175  0.000000 0.000000 0
darkrp_alarm_clock_base
0  -9.981369 -9.930470 9.354417  -0.702818 -0.702824 0.109935  0.000276 0.000364 0
0  -9.866026 -9.500000 0.000000  -0.706505 -0.706506 -0.041223  0.000000 0.000000 0
0  -9.500000 -9.866026 0.000000  -0.706505 -0.706506 -0.041223  0.010417 0.020833 0
darkrp_alarm_clock_base
0  -9.930470 -9.981369 9.354417  -0.252353 -0.967358 -0.023172  0.003346 0.004396 0
0  -9.500000 -9.866026 0.000000  -0.252336 -0.967362 -0.023173  0.010417 0.020833 0
0  -9.000000 -10.000000 0.000000  -0.120032 -0.992714 -0.010514  0.020833 0.041667 0
darkrp_alarm_clock_base
0  7.879004 10.000000 0.144218  0.000091 1.000000 0.000906  0.375805 0.496635 0
0  7.500000 10.000000 0.000000  0.000091 1.000000 0.000906  0.364583 0.486111 0
0  8.086893 10.000000 0.492392  0.000091 1.000000 0.000906  0.387310 0.500000 0
darkrp_alarm_clock_base
0  7.500000 10.000000 0.000000  0.000091 1.000000 0.000906  0.364583 0.486111 0
0  -9.000000 10.000000 0.000000  -0.119980 0.992721 -0.010509  0.020833 0.027778 0
0  0.792893 10.000000 9.207108  0.000101 1.000000 0.000974  0.587500 0.500000 0
darkrp_alarm_clock_base
0  8.086893 10.000000 0.492392  0.000091 1.000000 0.000906  0.387310 0.500000 0
0  7.500000 10.000000 0.000000  0.000091 1.000000 0.000906  0.364583 0.486111 0
0  8.213108 10.000000 1.207608  0.000086 1.000000 0.000859  0.405190 0.500000 0
darkrp_alarm_clock_base
0  -9.000000 10.000000 0.000000  -0.119980 0.992721 -0.010509  0.020833 0.027778 0
0  -9.860939 10.000000 9.522792  -0.045109 0.998976 -0.003354  0.006648 0.005853 0
0  -9.062783 10.000000 10.000000  0.000152 1.000000 0.000937  0.058576 0.046861 0
darkrp_alarm_clock_base
0  -9.860939 10.000000 9.522792  -0.045109 0.998976 -0.003354  0.006648 0.005853 0
0  -9.522792 10.000000 9.860939  0.000096 1.000000 0.000954  0.027763 0.022750 0
0  -9.062783 10.000000 10.000000  0.000152 1.000000 0.000937  0.058576 0.046861 0
darkrp_alarm_clock_base
0  -9.062783 10.000000 10.000000  0.000152 1.000000 0.000937  0.058576 0.046861 0
0  -2.122363 9.976824 9.983808  0.000087 0.999999 0.000984  0.566424 0.453139 0
0  -9.000000 10.000000 0.000000  -0.119980 0.992721 -0.010509  0.020833 0.027778 0
darkrp_alarm_clock_base
0  -2.122363 9.976824 9.983808  0.000087 0.999999 0.000984  0.566424 0.453139 0
0  -0.345320 9.981647 9.882031  0.000099 1.000000 0.000996  0.596564 0.478560 0
0  0.792893 10.000000 9.207108  0.000101 1.000000 0.000974  0.587500 0.500000 0
darkrp_alarm_clock_base
0  -0.345320 9.981647 9.882031  0.000099 1.000000 0.000996  0.596564 0.478560 0
0  0.160762 9.981647 9.672405  0.000118 0.999999 0.001011  0.606494 0.495667 0
0  0.792893 10.000000 9.207108  0.000101 1.000000 0.000974  0.587500 0.500000 0
darkrp_alarm_clock_base
0  0.160762 9.981647 9.672405  0.000118 0.999999 0.001011  0.606494 0.495667 0
0  0.553377 9.976824 9.423724  0.000104 0.999999 0.000979  0.593657 0.500000 0
0  0.792893 10.000000 9.207108  0.000101 1.000000 0.000974  0.587500 0.500000 0
darkrp_alarm_clock_base
0  0.792893 10.000000 9.207108  0.000101 1.000000 0.000974  0.587500 0.500000 0
0  7.946447 10.000000 2.053553  0.000086 1.000000 0.000859  0.425506 0.500000 0
0  7.500000 10.000000 0.000000  0.000091 1.000000 0.000906  0.364583 0.486111 0
darkrp_alarm_clock_base
0  7.946447 10.000000 2.053553  0.000086 1.000000 0.000859  0.425506 0.500000 0
0  8.170997 10.000000 1.659335  0.000096 1.000000 0.000954  0.414910 0.498350 0
0  8.213108 10.000000 1.207608  0.000086 1.000000 0.000859  0.405190 0.500000 0
darkrp_alarm_clock_base
0  7.946447 10.000000 2.053553  0.000086 1.000000 0.000859  0.425506 0.500000 0
0  8.213108 10.000000 1.207608  0.000086 1.000000 0.000859  0.405190 0.500000 0
0  7.500000 10.000000 0.000000  0.000091 1.000000 0.000906  0.364583 0.486111 0
darkrp_alarm_clock_base
0  -9.860939 10.000000 9.522792  -0.045109 0.998976 -0.003354  0.006648 0.005853 0
0  -9.000000 10.000000 0.000000  -0.119980 0.992721 -0.010509  0.020833 0.027778 0
0  -9.500000 9.866026 0.000000  -0.252383 0.967350 -0.023176  0.010417 0.013889 0
darkrp_alarm_clock_base
0  -9.930470 9.981369 9.354417  -0.702819 0.702823 0.109935  0.003346 0.002931 0
0  -9.500000 9.866026 0.000000  -0.706505 0.706506 -0.041223  0.010417 0.013889 0
0  -9.866026 9.500000 0.000000  -0.706505 0.706506 -0.041223  0.000000 0.000000 0
darkrp_alarm_clock_base
0  -9.981369 9.930470 9.354417  -0.967359 0.252347 -0.023171  0.000276 0.000243 0
0  -9.866026 9.500000 0.000000  -0.967362 0.252337 -0.023173  0.000000 0.000000 0
0  -10.000000 9.000000 0.000000  -0.992698 0.120120 -0.011032  0.000000 0.000000 0
darkrp_alarm_clock_base
0  7.853553 9.853554 0.000000  0.000000 0.000000 -1.000000  0.000000 0.000000 0
0  8.000000 9.500000 0.000000  0.000000 0.000000 -1.000000  0.000000 0.000000 0
0  7.500000 10.000000 0.000000  0.000000 0.000000 -1.000000  0.000000 0.000000 0
darkrp_alarm_clock_base
0  8.000000 9.500000 0.000000  0.000000 0.000000 -1.000000  0.000000 0.000000 0
0  8.000000 -9.500000 0.000000  0.000000 0.000000 -1.000000  0.000000 0.000000 0
0  -10.000000 9.000000 0.000000  0.000000 0.000000 -1.000000  0.000000 0.000000 0
darkrp_alarm_clock_base
0  7.500000 10.000000 0.000000  0.000000 0.000000 -1.000000  0.000000 0.000000 0
0  8.000000 9.500000 0.000000  0.000000 0.000000 -1.000000  0.000000 0.000000 0
0  -9.000000 10.000000 0.000000  0.000000 0.000000 -1.000000  0.000000 0.000000 0
darkrp_alarm_clock_base
0  8.000000 -9.500000 0.000000  0.000000 0.000000 -1.000000  0.000000 0.000000 0
0  7.853553 -9.853554 0.000000  0.000000 0.000000 -1.000000  0.000000 0.000000 0
0  7.500000 -10.000000 0.000000  0.000000 0.000000 -1.000000  0.000000 0.000000 0
darkrp_alarm_clock_base
0  7.500000 -10.000000 0.000000  0.000000 0.000000 -1.000000  0.000000 0.000000 0
0  -9.000000 -10.000000 0.000000  0.000000 0.000000 -1.000000  0.000000 0.000000 0
0  8.000000 -9.500000 0.000000  0.000000 0.000000 -1.000000  0.000000 0.000000 0
darkrp_alarm_clock_base
0  -9.000000 -10.000000 0.000000  0.000000 0.000000 -1.000000  0.000000 0.000000 0
0  -9.500000 -9.866026 0.000000  0.000000 0.000000 -1.000000  0.000000 0.000000 0
0  -10.000000 -9.000000 0.000000  0.000000 0.000000 -1.000000  0.000000 0.000000 0
darkrp_alarm_clock_base
0  -9.500000 -9.866026 0.000000  0.000000 0.000000 -1.000000  0.000000 0.000000 0
0  -9.866026 -9.500000 0.000000  0.000000 0.000000 -1.000000  0.000000 0.000000 0
0  -10.000000 -9.000000 0.000000  0.000000 0.000000 -1.000000  0.000000 0.000000 0
darkrp_alarm_clock_base
0  -10.000000 -9.000000 0.000000  0.000000 0.000000 -1.000000  0.000000 0.000000 0
0  -10.000000 9.000000 0.000000  0.000000 0.000000 -1.000000  0.000000 0.000000 0
0  8.000000 -9.500000 0.000000  0.000000 0.000000 -1.000000  0.000000 0.000000 0
darkrp_alarm_clock_base
0  -10.000000 9.000000 0.000000  0.000000 0.000000 -1.000000  0.000000 0.000000 0
0  -9.866026 9.500000 0.000000  0.000000 0.000000 -1.000000  0.000000 0.000000 0
0  -9.000000 10.000000 0.000000  0.000000 0.000000 -1.000000  0.000000 0.000000 0
darkrp_alarm_clock_base
0  -9.866026 9.500000 0.000000  0.000000 0.000000 -1.000000  0.000000 0.000000 0
0  -9.500000 9.866026 0.000000  0.000000 0.000000 -1.000000  0.000000 0.000000 0
0  -9.000000 10.000000 0.000000  0.000000 0.000000 -1.000000  0.000000 0.000000 0
darkrp_alarm_clock_base
0  8.000000 9.500000 0.000000  0.000000 0.000000 -1.000000  0.000000 0.000000 0
0  -10.000000 9.000000 0.000000  0.000000 0.000000 -1.000000  0.000000 0.000000 0
0  -9.000000 10.000000 0.000000  0.000000 0.000000 -1.000000  0.000000 0.000000 0
end
